<svg width="23" height="30" viewBox="0 0 23 30" fill="none" xmlns="http://www.w3.org/2000/svg">
<path d="M14.9463 0L22.0996 7.15332V27.8652C22.0994 29.0441 21.1437 29.9998 19.9648 30H2.13477C0.955878 29.9998 0.000251581 29.0441 0 27.8652V2.13477C0.000251702 0.955879 0.955879 0.000251546 2.13477 0H14.9463Z" fill="url(#paint0_linear_434_3753)"/>
<path d="M14.9465 5.0178V0L22.0996 7.15303H17.0818C15.9025 7.15303 14.9465 6.19705 14.9465 5.0178Z" fill="#33D491"/>
<path d="M22.0464 13.5054L16.4414 7.15308H22.0464V13.5054Z" fill="url(#paint1_linear_434_3753)"/>
<path d="M18.042 10.6833C18.5441 10.7344 18.9355 11.1589 18.9355 11.6746V22.8796C18.9354 23.3951 18.544 23.8198 18.042 23.8708L17.9404 23.8757H3.99609L3.89453 23.8708C3.3922 23.82 3.00015 23.3953 3 22.8796V11.6746C3 11.1587 3.39211 10.7342 3.89453 10.6833L3.99609 10.6785H17.9404L18.042 10.6833ZM11.4658 22.8796H17.9404V19.7673H11.4658V22.8796ZM3.99609 22.8796H10.4697V19.7673H3.99609V22.8796ZM11.4658 18.7712H17.9404V15.783H11.4658V18.7712ZM3.99609 18.7712H10.4697V15.783H3.99609V18.7712ZM11.4658 14.6628H17.9404V11.6746H11.4658V14.6628ZM3.99609 14.6628H10.4697V11.6746H3.99609V14.6628Z" fill="white"/>
<defs>
<linearGradient id="paint0_linear_434_3753" x1="22.0996" y1="0" x2="-5.981" y2="7.44687" gradientUnits="userSpaceOnUse">
<stop stop-color="#08B56D"/>
<stop offset="0.539583" stop-color="#3ECD92"/>
</linearGradient>
<linearGradient id="paint1_linear_434_3753" x1="19.6443" y1="7.15308" x2="19.6443" y2="14.3595" gradientUnits="userSpaceOnUse">
<stop stop-color="#19AC6F"/>
<stop offset="1" stop-color="#077F4D" stop-opacity="0"/>
</linearGradient>
</defs>
</svg>
