<svg width="16" height="17" viewBox="0 0 16 17" fill="none" xmlns="http://www.w3.org/2000/svg">
<path d="M3.48053 3.30196L11.526 1.52378C11.5802 1.51555 11.6354 1.51555 11.6896 1.52378L9.0278 1.30015C8.9738 1.28927 8.91817 1.28927 8.86416 1.30015L0.818711 3.05651C0.34962 3.16015 -0.0158349 3.82015 0.000528744 4.53469L0.175074 14.0038C0.175074 14.6311 0.485983 15.0947 0.873256 15.122L3.53507 15.3511C3.1478 15.3183 2.8478 14.8601 2.83689 14.2329L2.66235 4.76378C2.65144 4.04924 3.01689 3.38924 3.48053 3.30196Z" fill="#AD2015"/>
<path d="M11.5257 1.50771C11.9894 1.40407 12.3767 1.89498 12.3876 2.59862L12.5621 12.0732C12.5621 12.7823 12.213 13.4477 11.7494 13.5513L3.70393 15.3404C3.23484 15.4441 2.84756 14.9477 2.83666 14.2495L2.66211 4.78044C2.66211 4.06589 3.01666 3.40589 3.48029 3.30225L11.5257 1.50771Z" fill="url(#paint0_linear_112_12222)"/>
<path d="M12.5569 6.25857L12.306 2.57675C12.2623 1.81857 12.1641 1.48584 11.6078 1.48584L3.42595 3.3022C2.96777 3.41129 2.62959 4.10948 2.67322 4.8622L3.00595 8.64766L5.0405 9.68402L5.73868 9.56402L5.65686 9.50948L11.155 8.17857L12.5569 6.25857Z" fill="#AD2015"/>
<path d="M12.5946 2.68031C12.5128 1.94395 12.0764 1.43668 11.6237 1.54577L3.75279 3.37304C3.29461 3.47668 2.99461 4.15849 3.07643 4.89486L3.50734 8.47304L5.73824 9.56395L11.7382 8.13486L13.0419 6.2694L12.5946 2.68031Z" fill="url(#paint1_linear_112_12222)"/>
<path d="M9.50785 8.28219L9.86785 7.70946L9.50785 7.51855L7.68604 7.8131V10.4149L8.04604 10.6058L8.22058 10.3276L9.50785 10.1204V8.28219Z" fill="#AD2015"/>
<path d="M9.8682 10.3113L8.04639 10.6058V8.00402L9.8682 7.70947V10.3113Z" fill="white"/>
<path d="M7.1891 2.15111C7.1891 1.87293 7.1891 1.60566 7.15088 1.32202L7.18364 2.16202L7.1891 2.15111Z" fill="#07245C"/>
<path d="M7.1515 1.32254C7.1515 1.12598 7.10236 0.962181 7.05322 0.945801C7.12074 1.05744 7.15308 1.18681 7.14604 1.31708L7.1515 1.32254Z" fill="#07245C"/>
<path d="M8.4173 1.36572L8.45006 2.14572C8.41779 2.09722 8.37924 2.05321 8.33541 2.01481L8.30811 1.39845C8.37363 1.38754 8.4173 1.37663 8.4173 1.36572Z" fill="#07245C"/>
<path d="M8.4438 2.15144L8.14925 2.2115H8.11653L8.01289 2.2388H7.94744L7.71289 2.2934C7.7881 2.23909 7.84972 2.16807 7.89289 2.08592L8.34016 1.98218C8.41107 2.09138 8.46016 2.14598 8.4438 2.15144Z" fill="#07245C"/>
<path d="M6.86768 0.0293846C7.00693 -0.00979487 7.1543 -0.00979487 7.29356 0.0293846C7.15398 -0.00740882 7.00725 -0.00740882 6.86768 0.0293846Z" fill="#07245C"/>
<path d="M7.69719 2.32582L7.19487 2.16218L7.16211 1.32764L7.66443 1.48582L7.69719 2.32582Z" fill="#07245C"/>
<path d="M7.88792 2.11857C7.81148 2.24402 7.72412 2.33675 7.69682 2.32584L7.66406 1.48584C7.72904 1.49772 7.79564 1.49772 7.86062 1.48584L7.88792 2.11857Z" fill="#07245C"/>
<path d="M7.05859 0.945801L7.56091 1.10414C7.62781 1.21603 7.6601 1.34521 7.65373 1.47542L7.15141 1.31708C7.15627 1.19048 7.12401 1.06522 7.05859 0.956721V0.945801Z" fill="#07245C"/>
<path d="M7.41874 1.12059L6.92188 0.956787L7.4242 1.11513L7.41874 1.12059Z" fill="#07245C"/>
<path d="M7.55496 1.12074C7.51128 1.12074 7.4676 1.12074 7.41846 1.12074C7.44576 1.12074 7.4676 1.05522 7.46214 0.951479C7.50735 0.934478 7.55644 0.930583 7.60377 0.940241C7.6511 0.9499 7.69474 0.972721 7.72968 1.00608C7.82597 1.15134 7.87376 1.32337 7.86618 1.49748C7.8012 1.50937 7.7346 1.50937 7.66962 1.49748C7.67599 1.36727 7.64369 1.23809 7.5768 1.1262L7.55496 1.12074Z" fill="#07245C"/>
<path d="M7.2985 0.0293847L7.80032 0.187724C7.66154 0.146142 7.51364 0.146142 7.37486 0.187724L6.87305 0.0293847C7.01216 -0.0097949 7.15938 -0.0097949 7.2985 0.0293847Z" fill="#07245C"/>
<path d="M7.8003 0.171575C7.89949 0.205945 7.99046 0.260537 8.06745 0.331896C8.14444 0.403254 8.20578 0.489824 8.24757 0.586121C8.32318 0.73482 8.37298 0.895285 8.39484 1.06067C8.40141 1.16238 8.40141 1.26441 8.39484 1.36612C8.39484 1.36612 8.35121 1.36612 8.28575 1.39885C8.29823 1.08604 8.20398 0.778294 8.01848 0.526121C7.94261 0.445541 7.84558 0.387965 7.73849 0.359989C7.63141 0.332012 7.51861 0.334767 7.41303 0.367939C7.41303 0.264302 7.3803 0.171575 7.35303 0.166121C7.49913 0.121875 7.65532 0.12378 7.8003 0.171575Z" fill="#07245C"/>
<path d="M5.90234 0.231201H5.99507H6.09325H6.19144H6.28962H6.38234H6.48053H6.57871H6.67144H6.76962H6.8678L5.90234 0.460521V0.231201Z" fill="#07245C"/>
<path d="M7.42403 1.12084H7.32585H7.22767L7.12949 1.14814H7.03676H6.93858H6.8404H6.74767H6.64949L6.55131 1.17544H6.45312C6.4804 1.17544 6.49676 1.099 6.49131 1.00618L7.45676 0.776855C7.46222 1.0171 7.44585 1.08808 7.42403 1.12084Z" fill="#07245C"/>
<path d="M6.40953 0.390101L5.90771 0.231761L6.87317 0.00244141L7.37499 0.166242L6.40953 0.390101Z" fill="#07245C"/>
<path d="M6.46967 0.575294C6.46967 0.477014 6.43694 0.384194 6.40967 0.373274L7.37512 0.149414C7.4024 0.149414 7.42967 0.247694 7.43512 0.351434L6.46967 0.575294Z" fill="#07245C"/>
<path d="M4.93701 0.460449H5.02974H5.12792H5.2261H5.32428H5.41701H5.51519H5.61338H5.7061H5.80428H5.90247L4.93701 0.689769V0.460449Z" fill="#07245C"/>
<path d="M4.05864 2.88222L4.02588 2.09131L4.0641 2.88767C4.0641 2.88767 4.05864 2.89313 4.05864 2.88222Z" fill="#07245C"/>
<path d="M6.45325 1.32234H6.36052H6.26234H6.16416H6.07143L5.97325 1.34964H5.87507H5.78234H5.68416H5.58597H5.48779C5.51507 1.34964 5.53143 1.2732 5.52597 1.18038L6.51325 1.15308C6.51325 1.2459 6.48052 1.31688 6.45325 1.32234Z" fill="#07245C"/>
<path d="M4.02596 2.09674C3.98924 1.71015 4.06701 1.32129 4.2496 0.97856C4.32016 0.845018 4.41768 0.727583 4.53598 0.633691C4.65428 0.539798 4.7908 0.471495 4.93687 0.433105C4.78981 0.470815 4.65223 0.538806 4.53295 0.63273C4.41366 0.726655 4.3153 0.844443 4.24414 0.97856C4.16968 1.1125 4.11285 1.2555 4.07505 1.40401C4.07505 1.44765 4.07505 1.49129 4.04778 1.54038C4.04396 1.60214 4.04396 1.66407 4.04778 1.72583C4.02921 1.84854 4.02191 1.9727 4.02596 2.09674Z" fill="#07245C"/>
<path d="M5.28001 2.06934C5.28001 2.34206 5.30731 2.61479 5.31823 2.88206C5.28742 2.83404 5.24865 2.79161 5.20357 2.75661L5.17627 2.12934C5.24179 2.10206 5.28001 2.08025 5.28001 2.06934Z" fill="#07245C"/>
<path d="M5.26438 2.07495C5.26438 2.07495 5.22616 2.10771 5.16064 2.12955L5.26438 2.07495Z" fill="#07245C"/>
<path d="M5.44371 0.618861L4.94189 0.460521L5.90735 0.231201L6.40917 0.389541L5.44371 0.618861Z" fill="#07245C"/>
<path d="M5.50385 0.820744C5.50385 0.717004 5.47112 0.629644 5.44385 0.618724L6.4093 0.389404C6.43657 0.389404 6.46385 0.493144 6.4693 0.591424L5.50385 0.820744Z" fill="#07245C"/>
<path d="M5.49916 1.54027C5.4902 1.54258 5.48081 1.54258 5.47186 1.54027L5.39542 1.57846C5.39542 1.57846 5.35174 1.57846 5.34082 1.62209C5.301 1.69973 5.28041 1.78577 5.28076 1.873C5.27787 1.91477 5.27787 1.95669 5.28076 1.99846V2.03664C5.28076 2.03664 5.24254 2.03664 5.17702 2.08027C5.15479 1.89388 5.18504 1.70498 5.26438 1.53482C5.29168 1.48652 5.32934 1.44486 5.37464 1.4128C5.41995 1.38074 5.47179 1.35907 5.52646 1.34937C5.54146 1.41418 5.53172 1.48225 5.49916 1.54027Z" fill="#07245C"/>
<path d="M5.31302 2.88763L4.57666 3.06235C4.65052 3.00659 4.71185 2.9359 4.75666 2.85487L5.20393 2.75659C5.2803 2.82757 5.32939 2.88217 5.31302 2.88763Z" fill="#07245C"/>
<path d="M4.56633 3.0623L4.06947 2.89866L4.03125 2.10229L4.53357 2.26048L4.56633 3.0623Z" fill="#07245C"/>
<path d="M4.75706 2.85504C4.68062 2.9805 4.59326 3.06777 4.56596 3.06232L4.5332 2.2605C4.60003 2.27222 4.66839 2.27222 4.73522 2.2605L4.75706 2.85504Z" fill="#07245C"/>
<path d="M7.4348 0.367657C7.54039 0.334486 7.65319 0.331731 7.76027 0.359707C7.86735 0.387684 7.96439 0.44526 8.04026 0.525839C8.22576 0.778012 8.32001 1.08576 8.30753 1.39857L8.3348 2.01493L7.88753 2.11857L7.86026 1.46948C7.86783 1.29554 7.82009 1.12368 7.72389 0.978566C7.68899 0.945242 7.64539 0.922444 7.59811 0.912794C7.55083 0.903145 7.50179 0.907037 7.45662 0.924021L6.51298 1.15311L5.54753 1.37675C5.49292 1.38646 5.44113 1.40812 5.39587 1.44018C5.3506 1.47224 5.31299 1.51391 5.28571 1.5622C5.20645 1.73236 5.17623 1.92126 5.19844 2.10766L5.20389 2.75675L4.75662 2.86038V2.24948C4.71456 1.91087 4.77941 1.56759 4.94207 1.26766C5.0027 1.15702 5.08604 1.06046 5.18663 0.984317C5.28722 0.908172 5.40277 0.854164 5.52571 0.825839L6.46935 0.57493L7.4348 0.367657Z" fill="#07245C"/>
<path d="M4.73472 2.24379C4.66796 2.2555 4.59966 2.2555 4.5329 2.24379C4.50093 1.86621 4.57858 1.48742 4.75654 1.15288C4.8271 1.01933 4.92461 0.901899 5.04292 0.808007C5.16122 0.714114 5.29774 0.645811 5.44381 0.607422C5.47108 0.607422 5.49836 0.705604 5.50381 0.80924C5.38087 0.837565 5.26532 0.891573 5.16473 0.967718C5.06415 1.04386 4.9808 1.14042 4.92018 1.25106C4.75524 1.55414 4.69033 1.9016 4.73472 2.24379Z" fill="#07245C"/>
<path d="M4.53266 2.26029L4.03085 2.10211C3.99413 1.71552 4.0719 1.32666 4.25448 0.983931C4.32504 0.85039 4.42256 0.732954 4.54086 0.639062C4.65917 0.545169 4.79568 0.476866 4.94175 0.438477L5.44357 0.596658C5.2975 0.635048 5.16098 0.703351 5.04268 0.797244C4.92438 0.891136 4.82686 1.00857 4.7563 1.14211C4.5731 1.48462 4.49529 1.87367 4.53266 2.26029Z" fill="#07245C"/>
<path d="M12.5946 2.68031C12.5128 1.94395 12.0764 1.43668 11.6237 1.54577L3.75279 3.37304C3.29461 3.47668 2.99461 4.15849 3.07643 4.89486L3.50734 8.47304L5.73824 9.56395L11.7382 8.13486L13.0419 6.2694L12.5946 2.68031Z" fill="url(#paint2_radial_112_12222)" fill-opacity="0.65"/>
<path d="M12.8947 16.9383C12.8947 16.9383 12.9438 16.9873 12.9765 16.9383C13.0092 16.8892 12.9765 16.8783 12.9765 16.8455C12.9347 16.7054 12.9288 16.5571 12.9593 16.4142C12.9898 16.2712 13.0558 16.1382 13.151 16.0273L15.2401 13.5183C15.4375 13.2911 15.5827 13.0235 15.6657 12.7342C15.7486 12.4449 15.7672 12.1409 15.7201 11.8437C15.6518 11.3671 15.4135 10.9312 15.0492 10.6164C14.8583 10.4473 14.6565 10.2946 14.4601 10.131C14.1438 9.88008 13.8274 9.62917 13.5165 9.3728L12.2401 8.32553C12.2401 8.32553 12.1856 8.27644 12.1474 8.32553C12.1092 8.37462 12.1474 8.38553 12.1474 8.4128C12.1819 8.55124 12.1836 8.69582 12.1523 8.83502C12.1211 8.97422 12.0578 9.10421 11.9674 9.21462L11.7383 9.4928L10.1129 11.4837C9.93495 11.6791 9.77605 11.8909 9.63832 12.1164C9.48756 12.3854 9.4034 12.6865 9.39286 12.9946C9.371 13.1374 9.371 13.2827 9.39286 13.4255C9.46203 13.9145 9.70858 14.361 10.0856 14.6801C10.4401 14.9801 10.8001 15.2692 11.1765 15.5583L11.9183 16.1583L12.8947 16.9383Z" fill="#07245C"/>
<path d="M12.4206 13.8402H11.3297C11.2705 13.8409 11.2117 13.8299 11.1568 13.8077C11.1019 13.7856 11.052 13.7527 11.0099 13.7111C10.9678 13.6695 10.9343 13.62 10.9115 13.5654C10.8887 13.5107 10.8769 13.4521 10.877 13.3929V11.8766C10.8769 11.7574 10.9239 11.6431 11.0076 11.5583C11.0913 11.4736 11.2051 11.4253 11.3242 11.4238H12.4151C12.5343 11.4253 12.648 11.4736 12.7317 11.5583C12.8155 11.6431 12.8624 11.7574 12.8624 11.8766V13.3929C12.8624 13.5106 12.816 13.6236 12.7333 13.7073C12.6506 13.791 12.5383 13.8388 12.4206 13.8402ZM13.2388 12.1166C13.2109 12.1377 13.188 12.1649 13.172 12.196C13.1559 12.2272 13.1471 12.2615 13.146 12.2966V12.9675C13.1471 13.0025 13.1559 13.0368 13.172 13.068C13.188 13.0991 13.2109 13.1263 13.2388 13.1475L14.0406 13.6929C14.0594 13.7058 14.0815 13.7134 14.1043 13.7147C14.1271 13.716 14.1498 13.711 14.1701 13.7004C14.1903 13.6897 14.2072 13.6737 14.219 13.6541C14.2308 13.6346 14.237 13.6121 14.237 13.5893V11.6638C14.237 11.641 14.2308 11.6185 14.219 11.599C14.2072 11.5794 14.1903 11.5634 14.1701 11.5527C14.1498 11.5421 14.1271 11.5371 14.1043 11.5384C14.0815 11.5398 14.0594 11.5473 14.0406 11.5602L13.2388 12.1166Z" fill="white"/>
<defs>
<linearGradient id="paint0_linear_112_12222" x1="2.66211" y1="8.42407" x2="12.5621" y2="8.42407" gradientUnits="userSpaceOnUse">
<stop stop-color="#FA7C55"/>
<stop offset="0.11" stop-color="#F75A49"/>
<stop offset="0.31" stop-color="#F22136"/>
<stop offset="0.4" stop-color="#F00B2E"/>
<stop offset="0.97" stop-color="#C3001C"/>
</linearGradient>
<linearGradient id="paint1_linear_112_12222" x1="2.8637" y1="5.5494" x2="15.6273" y2="5.5494" gradientUnits="userSpaceOnUse">
<stop stop-color="#FA7C55"/>
<stop offset="0.15" stop-color="#F75A49"/>
<stop offset="0.43" stop-color="#F22136"/>
<stop offset="0.56" stop-color="#F00B2E"/>
<stop offset="0.97" stop-color="#C3001C"/>
</linearGradient>
<radialGradient id="paint2_radial_112_12222" cx="0" cy="0" r="1" gradientUnits="userSpaceOnUse" gradientTransform="translate(7.91461 2.3694) scale(5.96727)">
<stop stop-color="white"/>
<stop offset="0.56" stop-color="white" stop-opacity="0.44"/>
<stop offset="0.98" stop-color="white" stop-opacity="0"/>
</radialGradient>
</defs>
</svg>
