<svg width="120" height="120" viewBox="0 0 120 120" fill="none" xmlns="http://www.w3.org/2000/svg">
<path d="M65.7628 109.237C63.7908 111.112 61.4057 110.868 58.8233 109.799L55.6494 70.7523L62.5795 70.1899L65.7628 109.237Z" fill="url(#paint0_linear_1_9675)"/>
<path d="M51.6394 10.4385L48.4937 13.5877L91.8862 74.5858L95.0132 71.446L51.6394 10.4385Z" fill="#AD2015"/>
<path d="M47.5742 14.8813L19.1686 74.7172C18.8426 75.4013 18.7031 76.1591 18.7639 76.9143C18.8247 77.6694 19.0838 78.3952 19.5151 79.0186C19.9464 79.642 20.5346 80.1409 21.2206 80.4652C21.9065 80.7895 22.6659 80.9276 23.4224 80.8657L89.5488 75.5045C90.3044 75.4429 91.0305 75.184 91.6541 74.7536C92.2776 74.3232 92.7768 73.7366 93.1013 73.0528C93.4258 72.3689 93.5642 71.6118 93.5027 70.8576C93.4412 70.1034 93.1819 69.3786 92.7509 68.7561L55.0864 14.2721C54.6582 13.6361 54.0679 13.1255 53.3763 12.7928C52.6846 12.4602 51.9167 12.3176 51.1515 12.3796C50.3863 12.4417 49.6515 12.7062 49.0227 13.1459C48.3939 13.5856 47.894 14.1846 47.5742 14.8813Z" fill="#C6710C"/>
<path d="M50.5799 11.8443L22.2212 71.6896C21.8947 72.3745 21.7551 73.1332 21.8163 73.8892C21.8775 74.6453 22.1375 75.3718 22.5699 75.9954C23.0023 76.6191 23.592 77.1179 24.2793 77.4414C24.9665 77.765 25.7272 77.9018 26.4844 77.8381L92.5545 72.505C93.3111 72.4432 94.0381 72.1838 94.6626 71.753C95.2871 71.3221 95.787 70.735 96.1124 70.0504C96.4377 69.3658 96.577 68.6078 96.5162 67.8525C96.4554 67.0972 96.1967 66.3712 95.766 65.7472L58.0452 11.2445C57.615 10.6197 57.0273 10.1191 56.3414 9.79336C55.6556 9.46758 54.8958 9.32807 54.1387 9.3889C53.3816 9.44974 52.6539 9.70877 52.0291 10.1399C51.4043 10.571 50.9044 11.1589 50.5799 11.8443Z" fill="#F9A12D"/>
<path d="M88.4397 69.9744L30.0884 74.6608C29.4331 74.7117 28.7759 74.5901 28.1824 74.308C27.589 74.026 27.0801 73.5935 26.7065 73.0537C26.333 72.5138 26.1079 71.8856 26.0538 71.2318C25.9996 70.578 26.1183 69.9214 26.398 69.3277L51.4701 16.5308C51.761 15.9506 52.1977 15.4556 52.7376 15.0943C53.2775 14.733 53.9021 14.5177 54.5504 14.4696C55.1986 14.4214 55.8483 14.542 56.4358 14.8195C57.0234 15.097 57.5287 15.5219 57.9025 16.0528L91.2193 64.1165C91.5924 64.6599 91.8155 65.2919 91.866 65.9488C91.9165 66.6057 91.7928 67.2643 91.5071 67.8582C91.2215 68.4522 90.7841 68.9605 90.239 69.332C89.6939 69.7035 89.0604 69.9251 88.4022 69.9744H88.4397ZM53.2073 17.3744L28.0977 70.1806C27.9571 70.4799 27.8983 70.811 27.9273 71.1403C27.9562 71.4696 28.0719 71.7854 28.2626 72.0557C28.4533 72.326 28.7122 72.5411 29.0131 72.6793C29.3139 72.8175 29.646 72.8738 29.9757 72.8425L88.327 68.1561C88.653 68.1265 88.9655 68.0124 89.2336 67.8251C89.5017 67.6378 89.7162 67.3838 89.8556 67.0883C89.9951 66.7927 90.0548 66.466 90.0288 66.1404C90.0028 65.8147 89.892 65.5015 89.7074 65.2318L56.3906 17.1119C56.2026 16.8441 55.9477 16.63 55.6511 16.4909C55.3546 16.3519 55.0267 16.2926 54.7002 16.3192C54.3736 16.3457 54.0596 16.4571 53.7895 16.6422C53.5194 16.8273 53.3025 17.0797 53.1604 17.3744H53.2073Z" fill="url(#paint1_linear_1_9675)"/>
<path d="M56.4478 65.813C55.6709 65.0561 55.1944 64.0442 55.1064 62.9641C55.0184 61.884 55.3247 60.8085 55.9689 59.9362C56.3183 59.5277 56.7493 59.1965 57.2345 58.9641C57.7196 58.7317 58.2481 58.6031 58.786 58.5866C59.3041 58.5309 59.8282 58.5856 60.3236 58.7472C60.8189 58.9088 61.2742 59.1735 61.6594 59.5238C62.45 60.2519 62.9194 61.263 62.9647 62.3357C63.1017 63.4142 62.8045 64.503 62.1383 65.3631C61.8071 65.7588 61.3976 66.0821 60.9355 66.3127C60.4734 66.5434 59.9686 66.6763 59.4527 66.7034C58.9174 66.7713 58.3737 66.7272 57.8564 66.5739C57.339 66.4206 56.8593 66.1614 56.4478 65.813ZM55.6121 50.0105L52.8701 28.8186C53.7574 28.3242 54.7473 28.0419 55.7623 27.9938C56.265 27.9271 56.7761 27.9678 57.2617 28.1133C57.7474 28.2587 58.1966 28.5055 58.5794 28.8373C58.9854 29.2481 59.3017 29.7383 59.5086 30.277C59.7154 30.8158 59.8083 31.3915 59.7814 31.9678L60.542 53.2347C60.3854 53.4492 60.1792 53.6228 59.941 53.7408C59.7298 53.8642 59.4973 53.9469 59.2555 53.9845C57.1521 54.1532 55.9501 52.8223 55.6121 50.0105Z" fill="black"/>
<path d="M68.0362 61.7825C68.6015 61.7825 69.0598 61.3251 69.0598 60.7609C69.0598 60.1967 68.6015 59.7393 68.0362 59.7393C67.471 59.7393 67.0127 60.1967 67.0127 60.7609C67.0127 61.3251 67.471 61.7825 68.0362 61.7825Z" fill="#C6710C"/>
<path d="M49.3761 63.8257C49.9414 63.8257 50.3996 63.3683 50.3996 62.8041C50.3996 62.2399 49.9414 61.7825 49.3761 61.7825C48.8108 61.7825 48.3525 62.2399 48.3525 62.8041C48.3525 63.3683 48.8108 63.8257 49.3761 63.8257Z" fill="#C6710C"/>
<path d="M47.7521 43.8616C48.3173 43.8616 48.7756 43.4042 48.7756 42.84C48.7756 42.2758 48.3173 41.8184 47.7521 41.8184C47.1868 41.8184 46.7285 42.2758 46.7285 42.84C46.7285 43.4042 47.1868 43.8616 47.7521 43.8616Z" fill="#C6710C"/>
<path d="M66.4015 41.8091C66.9668 41.8091 67.425 41.3517 67.425 40.7875C67.425 40.2233 66.9668 39.7659 66.4015 39.7659C65.8362 39.7659 65.3779 40.2233 65.3779 40.7875C65.3779 41.3517 65.8362 41.8091 66.4015 41.8091Z" fill="#C6710C"/>
<path d="M84.0361 35.8199L96.5534 24.4226L99.3705 30.7024L84.0361 35.8199Z" fill="#F9A12D"/>
<path d="M83.126 39.0818H101.249L99.3712 45.7833L83.126 39.0818Z" fill="#F9A12D"/>
<path d="M81.5679 33.6547L90.93 19.708L82.2252 17.7209L81.5679 33.6547Z" fill="#F9A12D"/>
<defs>
<linearGradient id="paint0_linear_1_9675" x1="62.4574" y1="112.508" x2="59.3701" y2="72.7197" gradientUnits="userSpaceOnUse">
<stop stop-color="#606060"/>
<stop offset="0.3" stop-color="#5D5D5D"/>
<stop offset="0.52" stop-color="#545454"/>
<stop offset="0.71" stop-color="#454544"/>
<stop offset="0.89" stop-color="#2F2F2D"/>
<stop offset="1" stop-color="#1D1D1B"/>
</linearGradient>
<linearGradient id="paint1_linear_1_9675" x1="26.0318" y1="44.5742" x2="91.886" y2="44.5742" gradientUnits="userSpaceOnUse">
<stop stop-color="#F39B2D"/>
<stop offset="0.01" stop-color="#F3972D"/>
<stop offset="0.08" stop-color="#EF722D"/>
<stop offset="0.16" stop-color="#EC542E"/>
<stop offset="0.24" stop-color="#E93C2E"/>
<stop offset="0.33" stop-color="#E72B2E"/>
<stop offset="0.43" stop-color="#E6212E"/>
<stop offset="0.55" stop-color="#E61E2E"/>
<stop offset="0.81" stop-color="#B22027"/>
</linearGradient>
</defs>
</svg>
